<svg width="210" height="61" viewBox="0 0 210 61" fill="none" xmlns="http://www.w3.org/2000/svg">
<path d="M3.75 7.5V19.0033H18.8457V53.041H30.9134V19.0033H42.5832H54.673V53.041H66.7186V19.0033H81.8806V7.5H3.75Z" fill="#0F40EE"/>
<path d="M114.039 36.5301C115.321 35.8688 116.492 34.9475 117.509 33.8137L117.531 33.7901C118.349 32.9161 119.167 31.6406 119.984 29.9635C120.669 28.4518 121.001 26.4677 121.001 24.0583C121.001 21.649 120.603 19.4995 119.808 17.4209C119.034 15.3895 117.907 13.6179 116.47 12.2007C115.011 10.7598 113.155 9.60238 110.967 8.77565C108.823 7.94892 106.414 7.54736 103.585 7.54736H93.8156V19.0271H81.9026V53.0411H93.7051V39.8371H101.883L108.071 53.0411H120.669L112.646 37.2151L114.039 36.5301Z" fill="#0F40EE"/>
<path d="M141.335 48.3877V53.2536H129.709V48.3877C129.709 44.0651 131.455 42.2227 135.522 42.2227C139.589 42.2227 141.335 44.0415 141.335 48.3877ZM131.654 50.3246H139.434V48.5294C139.434 46.2382 138.263 45.2697 135.544 45.2697C132.826 45.2697 131.654 46.2382 131.654 48.5294V50.3246Z" fill="#0F40EE"/>
<path d="M138.948 33.5537V37.9708L141.335 38.7503V41.6793L129.709 37.6165V33.5301L141.335 29.7507V32.7978L138.948 33.5537ZM137.158 37.3803V34.097L131.986 35.7032L137.158 37.3803Z" fill="#0F40EE"/>
<path d="M131.787 18.8145V22.4757H141.335V25.381H131.787V29.0423H129.709V18.8145H131.787Z" fill="#0F40EE"/>
<path d="M138.948 11.5627V15.9798L141.335 16.7593V19.6883L129.709 15.6255V11.5391L141.335 7.75977V10.8069L138.948 11.5627ZM137.158 15.4129V12.1296L131.986 13.7358L137.158 15.4129Z" fill="#0F40EE"/>
<path d="M172.499 19.334V28.617H171.305L166.111 21.5307V28.617H164.896V19.334H166.045L171.261 26.4675V19.334H172.499Z" fill="#0F40EE"/>
<path d="M175.659 20.4443C176.499 19.5467 177.626 19.0979 178.975 19.0979C180.345 19.0979 181.45 19.5467 182.29 20.4443C183.13 21.3419 183.572 22.4993 183.572 23.9402C183.572 25.381 183.152 26.5621 182.29 27.4361C181.45 28.3336 180.323 28.7824 178.975 28.7824C177.604 28.7824 176.499 28.3336 175.659 27.4361C174.819 26.5385 174.377 25.381 174.377 23.9402C174.377 22.5229 174.797 21.3419 175.659 20.4443ZM176.588 26.5857C177.206 27.2471 178.002 27.5778 178.975 27.5778C179.947 27.5778 180.743 27.2471 181.362 26.5857C181.981 25.9243 182.29 25.0503 182.29 23.9638C182.29 22.8772 181.981 22.0033 181.362 21.3419C180.743 20.6805 179.947 20.3498 178.975 20.3498C178.002 20.3498 177.206 20.6805 176.588 21.3419C175.969 22.0033 175.659 22.8772 175.659 23.9638C175.659 25.0503 175.969 25.9243 176.588 26.5857Z" fill="#0F40EE"/>
<path d="M193.96 28.5933H192.811L190.534 21.507L188.258 28.5933H187.086L184.169 19.3103H185.451L187.705 26.5855L190.004 19.3103H191.042L193.363 26.5619L195.618 19.3103H196.899L193.96 28.5933Z" fill="#0F40EE"/>
<path d="M167.636 37.4747L164.034 31.4277H165.404L168.255 36.1283L171.106 31.4277H172.477L168.874 37.4747V40.6871H167.636V37.4747Z" fill="#0F40EE"/>
<path d="M174.289 32.538C175.129 31.6404 176.256 31.1917 177.604 31.1917C178.975 31.1917 180.08 31.6404 180.92 32.538C181.759 33.4356 182.202 34.5931 182.202 36.0339C182.202 37.4748 181.782 38.6558 180.92 39.5298C180.08 40.4274 178.953 40.8762 177.604 40.8762C176.234 40.8762 175.129 40.4274 174.289 39.5298C173.449 38.6322 173.007 37.4748 173.007 36.0339C173.007 34.6167 173.449 33.4356 174.289 32.538ZM175.217 38.6795C175.836 39.3408 176.632 39.6715 177.604 39.6715C178.577 39.6715 179.372 39.3408 179.991 38.6795C180.61 38.0181 180.92 37.1441 180.92 36.0575C180.92 34.971 180.61 34.097 179.991 33.4356C179.372 32.7742 178.577 32.4436 177.604 32.4436C176.632 32.4436 175.836 32.7742 175.217 33.4356C174.598 34.097 174.289 34.971 174.289 36.0575C174.289 37.1441 174.598 38.0181 175.217 38.6795Z" fill="#0F40EE"/>
<path d="M191.529 31.4277V36.8605C191.529 38.0888 191.175 39.0809 190.49 39.8131C189.805 40.5454 188.876 40.8997 187.705 40.8997C186.556 40.8997 185.649 40.5454 184.964 39.8131C184.279 39.0809 183.926 38.0888 183.926 36.8605V31.4277H185.141V36.8605C185.141 37.7345 185.384 38.4195 185.848 38.9392C186.313 39.4588 186.931 39.695 187.727 39.695C188.501 39.695 189.142 39.4352 189.606 38.9392C190.092 38.4195 190.313 37.7345 190.313 36.8605V31.4277H191.529Z" fill="#0F40EE"/>
<path d="M166.111 49.1198V52.781H164.896V43.498H166.111V47.8679H166.907L170.488 43.498H172.013L168.344 47.9624L172.256 52.781H170.731L167.659 49.1198H166.111Z" fill="#0F40EE"/>
<path d="M181.229 43.498V52.781H180.036L174.842 45.6948V52.781H173.626V43.498H174.775L179.991 50.6315V43.498H181.229Z" fill="#0F40EE"/>
<path d="M184.39 44.632C185.23 43.7344 186.357 43.2856 187.705 43.2856C189.075 43.2856 190.181 43.7344 191.02 44.632C191.86 45.5296 192.302 46.687 192.302 48.1279C192.302 49.5688 191.882 50.7498 191.02 51.6238C190.181 52.5214 189.053 52.9702 187.705 52.9702C186.335 52.9702 185.23 52.5214 184.39 51.6238C183.55 50.7262 183.108 49.5688 183.108 48.1279C183.108 46.7107 183.528 45.5296 184.39 44.632ZM185.318 50.7734C185.937 51.4348 186.733 51.7655 187.705 51.7655C188.678 51.7655 189.473 51.4348 190.092 50.7734C190.711 50.1121 191.02 49.2381 191.02 48.1515C191.02 47.065 190.711 46.191 190.092 45.5296C189.473 44.8682 188.678 44.5375 187.705 44.5375C186.733 44.5375 185.937 44.8682 185.318 45.5296C184.699 46.191 184.39 47.065 184.39 48.1515C184.39 49.2381 184.699 50.1121 185.318 50.7734Z" fill="#0F40EE"/>
<path d="M202.69 52.781H201.541L199.264 45.6948L196.988 52.781H195.816L192.899 43.498H194.181L196.435 50.7733L198.734 43.498H199.773L202.093 50.7496L204.348 43.498H205.63L202.69 52.781Z" fill="#0F40EE"/>
</svg>
